<mxfile host="app.diagrams.net" modified="2023-10-03T07:51:01.135Z" agent="Mozilla/5.0 (Windows NT 10.0; Win64; x64) AppleWebKit/537.36 (KHTML, like Gecko) Chrome/117.0.0.0 Safari/537.36" etag="5YENb7oBMZYizRKfngNH" version="22.0.0" type="device">
  <diagram id="R2lEEEUBdFMjLlhIrx00" name="Page-1">
    <mxGraphModel dx="1114" dy="600" grid="1" gridSize="10" guides="1" tooltips="1" connect="1" arrows="1" fold="1" page="1" pageScale="1" pageWidth="850" pageHeight="1100" math="0" shadow="0" extFonts="Permanent Marker^https://fonts.googleapis.com/css?family=Permanent+Marker">
      <root>
        <mxCell id="0" />
        <mxCell id="1" parent="0" />
        <mxCell id="tWEEJkD8r4EJW1etzhwF-2" value="producto" style="rounded=0;whiteSpace=wrap;html=1;" vertex="1" parent="1">
          <mxGeometry x="240" y="140" width="120" height="60" as="geometry" />
        </mxCell>
        <mxCell id="tWEEJkD8r4EJW1etzhwF-4" value="nombrecompleto" style="ellipse;whiteSpace=wrap;html=1;rounded=0;" vertex="1" parent="1">
          <mxGeometry x="155" y="560" width="120" height="40" as="geometry" />
        </mxCell>
        <mxCell id="tWEEJkD8r4EJW1etzhwF-5" value="&lt;b&gt;&lt;u&gt;dni&lt;/u&gt;&lt;/b&gt;" style="ellipse;whiteSpace=wrap;html=1;rounded=0;" vertex="1" parent="1">
          <mxGeometry x="75" y="490" width="120" height="40" as="geometry" />
        </mxCell>
        <mxCell id="tWEEJkD8r4EJW1etzhwF-6" value="direccion" style="ellipse;whiteSpace=wrap;html=1;rounded=0;" vertex="1" parent="1">
          <mxGeometry x="315" y="560" width="120" height="40" as="geometry" />
        </mxCell>
        <mxCell id="tWEEJkD8r4EJW1etzhwF-7" value="fecha de nacimiento" style="ellipse;whiteSpace=wrap;html=1;rounded=0;" vertex="1" parent="1">
          <mxGeometry x="445" y="490" width="120" height="40" as="geometry" />
        </mxCell>
        <mxCell id="tWEEJkD8r4EJW1etzhwF-8" value="apellido1" style="ellipse;whiteSpace=wrap;html=1;rounded=0;" vertex="1" parent="1">
          <mxGeometry x="145" y="650" width="70" height="40" as="geometry" />
        </mxCell>
        <mxCell id="tWEEJkD8r4EJW1etzhwF-9" value="nombre" style="ellipse;whiteSpace=wrap;html=1;rounded=0;" vertex="1" parent="1">
          <mxGeometry x="35" y="650" width="90" height="40" as="geometry" />
        </mxCell>
        <mxCell id="tWEEJkD8r4EJW1etzhwF-10" value="apellido2" style="ellipse;whiteSpace=wrap;html=1;rounded=0;" vertex="1" parent="1">
          <mxGeometry x="235" y="650" width="60" height="40" as="geometry" />
        </mxCell>
        <mxCell id="tWEEJkD8r4EJW1etzhwF-11" value="" style="endArrow=none;html=1;rounded=0;exitX=0.5;exitY=0;exitDx=0;exitDy=0;entryX=0;entryY=1;entryDx=0;entryDy=0;" edge="1" parent="1" source="tWEEJkD8r4EJW1etzhwF-9" target="tWEEJkD8r4EJW1etzhwF-4">
          <mxGeometry width="50" height="50" relative="1" as="geometry">
            <mxPoint x="215" y="450" as="sourcePoint" />
            <mxPoint x="265" y="400" as="targetPoint" />
          </mxGeometry>
        </mxCell>
        <mxCell id="tWEEJkD8r4EJW1etzhwF-12" value="" style="endArrow=none;html=1;rounded=0;" edge="1" parent="1" source="tWEEJkD8r4EJW1etzhwF-8" target="tWEEJkD8r4EJW1etzhwF-4">
          <mxGeometry width="50" height="50" relative="1" as="geometry">
            <mxPoint x="90" y="660" as="sourcePoint" />
            <mxPoint x="183" y="604" as="targetPoint" />
          </mxGeometry>
        </mxCell>
        <mxCell id="tWEEJkD8r4EJW1etzhwF-13" value="" style="endArrow=none;html=1;rounded=0;exitX=0.367;exitY=0.05;exitDx=0;exitDy=0;exitPerimeter=0;entryX=0.783;entryY=0.925;entryDx=0;entryDy=0;entryPerimeter=0;" edge="1" parent="1" source="tWEEJkD8r4EJW1etzhwF-10" target="tWEEJkD8r4EJW1etzhwF-4">
          <mxGeometry width="50" height="50" relative="1" as="geometry">
            <mxPoint x="198" y="660" as="sourcePoint" />
            <mxPoint x="217" y="610" as="targetPoint" />
          </mxGeometry>
        </mxCell>
        <mxCell id="tWEEJkD8r4EJW1etzhwF-16" value="" style="endArrow=none;html=1;rounded=0;exitX=1;exitY=1;exitDx=0;exitDy=0;" edge="1" parent="1" source="tWEEJkD8r4EJW1etzhwF-19" target="tWEEJkD8r4EJW1etzhwF-7">
          <mxGeometry width="50" height="50" relative="1" as="geometry">
            <mxPoint x="215" y="450" as="sourcePoint" />
            <mxPoint x="265" y="400" as="targetPoint" />
          </mxGeometry>
        </mxCell>
        <mxCell id="tWEEJkD8r4EJW1etzhwF-17" value="" style="endArrow=none;html=1;rounded=0;entryX=0.558;entryY=1.033;entryDx=0;entryDy=0;entryPerimeter=0;exitX=0.558;exitY=0.05;exitDx=0;exitDy=0;exitPerimeter=0;" edge="1" parent="1" source="tWEEJkD8r4EJW1etzhwF-6" target="tWEEJkD8r4EJW1etzhwF-19">
          <mxGeometry width="50" height="50" relative="1" as="geometry">
            <mxPoint x="215" y="450" as="sourcePoint" />
            <mxPoint x="265" y="400" as="targetPoint" />
          </mxGeometry>
        </mxCell>
        <mxCell id="tWEEJkD8r4EJW1etzhwF-18" value="" style="endArrow=none;html=1;rounded=0;exitX=0.667;exitY=0;exitDx=0;exitDy=0;exitPerimeter=0;" edge="1" parent="1" source="tWEEJkD8r4EJW1etzhwF-4" target="tWEEJkD8r4EJW1etzhwF-19">
          <mxGeometry width="50" height="50" relative="1" as="geometry">
            <mxPoint x="215" y="450" as="sourcePoint" />
            <mxPoint x="265" y="400" as="targetPoint" />
          </mxGeometry>
        </mxCell>
        <mxCell id="tWEEJkD8r4EJW1etzhwF-19" value="cliente" style="rounded=0;whiteSpace=wrap;html=1;" vertex="1" parent="1">
          <mxGeometry x="240" y="410" width="120" height="60" as="geometry" />
        </mxCell>
        <mxCell id="tWEEJkD8r4EJW1etzhwF-22" value="&lt;b&gt;&lt;u&gt;codigo&lt;/u&gt;&lt;/b&gt;" style="ellipse;whiteSpace=wrap;html=1;rounded=0;" vertex="1" parent="1">
          <mxGeometry x="100" y="50" width="120" height="40" as="geometry" />
        </mxCell>
        <mxCell id="tWEEJkD8r4EJW1etzhwF-23" value="nombre" style="ellipse;whiteSpace=wrap;html=1;rounded=0;" vertex="1" parent="1">
          <mxGeometry x="50" y="120" width="120" height="40" as="geometry" />
        </mxCell>
        <mxCell id="tWEEJkD8r4EJW1etzhwF-24" value="precio_unitario" style="ellipse;whiteSpace=wrap;html=1;rounded=0;" vertex="1" parent="1">
          <mxGeometry x="60" y="200" width="120" height="40" as="geometry" />
        </mxCell>
        <mxCell id="tWEEJkD8r4EJW1etzhwF-25" value="" style="endArrow=none;html=1;rounded=0;entryX=1;entryY=0.5;entryDx=0;entryDy=0;exitX=0;exitY=1;exitDx=0;exitDy=0;" edge="1" parent="1" source="tWEEJkD8r4EJW1etzhwF-2" target="tWEEJkD8r4EJW1etzhwF-24">
          <mxGeometry width="50" height="50" relative="1" as="geometry">
            <mxPoint x="400" y="340" as="sourcePoint" />
            <mxPoint x="450" y="290" as="targetPoint" />
          </mxGeometry>
        </mxCell>
        <mxCell id="tWEEJkD8r4EJW1etzhwF-26" value="" style="endArrow=none;html=1;rounded=0;entryX=1;entryY=0.5;entryDx=0;entryDy=0;exitX=-0.017;exitY=0.617;exitDx=0;exitDy=0;exitPerimeter=0;" edge="1" parent="1" source="tWEEJkD8r4EJW1etzhwF-2" target="tWEEJkD8r4EJW1etzhwF-23">
          <mxGeometry width="50" height="50" relative="1" as="geometry">
            <mxPoint x="400" y="340" as="sourcePoint" />
            <mxPoint x="450" y="290" as="targetPoint" />
          </mxGeometry>
        </mxCell>
        <mxCell id="tWEEJkD8r4EJW1etzhwF-27" value="" style="endArrow=none;html=1;rounded=0;entryX=1;entryY=1;entryDx=0;entryDy=0;" edge="1" parent="1" source="tWEEJkD8r4EJW1etzhwF-2" target="tWEEJkD8r4EJW1etzhwF-22">
          <mxGeometry width="50" height="50" relative="1" as="geometry">
            <mxPoint x="400" y="340" as="sourcePoint" />
            <mxPoint x="450" y="290" as="targetPoint" />
          </mxGeometry>
        </mxCell>
        <mxCell id="tWEEJkD8r4EJW1etzhwF-28" value="compra" style="rhombus;whiteSpace=wrap;html=1;rounded=0;" vertex="1" parent="1">
          <mxGeometry x="260" y="260" width="80" height="80" as="geometry" />
        </mxCell>
        <mxCell id="tWEEJkD8r4EJW1etzhwF-33" value="" style="endArrow=none;html=1;rounded=0;entryX=0.5;entryY=1;entryDx=0;entryDy=0;exitX=0.5;exitY=0;exitDx=0;exitDy=0;" edge="1" parent="1" source="tWEEJkD8r4EJW1etzhwF-28" target="tWEEJkD8r4EJW1etzhwF-2">
          <mxGeometry width="50" height="50" relative="1" as="geometry">
            <mxPoint x="400" y="340" as="sourcePoint" />
            <mxPoint x="450" y="290" as="targetPoint" />
          </mxGeometry>
        </mxCell>
        <mxCell id="tWEEJkD8r4EJW1etzhwF-34" value="" style="endArrow=none;html=1;rounded=0;entryX=0;entryY=0.5;entryDx=0;entryDy=0;exitX=0.958;exitY=0.25;exitDx=0;exitDy=0;exitPerimeter=0;" edge="1" parent="1" source="tWEEJkD8r4EJW1etzhwF-5" target="tWEEJkD8r4EJW1etzhwF-19">
          <mxGeometry width="50" height="50" relative="1" as="geometry">
            <mxPoint x="400" y="540" as="sourcePoint" />
            <mxPoint x="450" y="490" as="targetPoint" />
          </mxGeometry>
        </mxCell>
        <mxCell id="tWEEJkD8r4EJW1etzhwF-35" value="" style="endArrow=none;html=1;rounded=0;exitX=0.5;exitY=1;exitDx=0;exitDy=0;entryX=0.5;entryY=0;entryDx=0;entryDy=0;" edge="1" parent="1" source="tWEEJkD8r4EJW1etzhwF-28" target="tWEEJkD8r4EJW1etzhwF-19">
          <mxGeometry width="50" height="50" relative="1" as="geometry">
            <mxPoint x="400" y="240" as="sourcePoint" />
            <mxPoint x="450" y="190" as="targetPoint" />
          </mxGeometry>
        </mxCell>
        <mxCell id="tWEEJkD8r4EJW1etzhwF-36" value="(0,n)" style="text;html=1;strokeColor=none;fillColor=none;align=center;verticalAlign=middle;whiteSpace=wrap;rounded=0;" vertex="1" parent="1">
          <mxGeometry x="315" y="220" width="60" height="30" as="geometry" />
        </mxCell>
        <mxCell id="tWEEJkD8r4EJW1etzhwF-37" value="(0,n)" style="text;html=1;strokeColor=none;fillColor=none;align=center;verticalAlign=middle;whiteSpace=wrap;rounded=0;" vertex="1" parent="1">
          <mxGeometry x="310" y="350" width="60" height="30" as="geometry" />
        </mxCell>
        <mxCell id="tWEEJkD8r4EJW1etzhwF-38" value="proveedor" style="rounded=0;whiteSpace=wrap;html=1;" vertex="1" parent="1">
          <mxGeometry x="650" y="140" width="120" height="60" as="geometry" />
        </mxCell>
        <mxCell id="tWEEJkD8r4EJW1etzhwF-39" value="suministra" style="rhombus;whiteSpace=wrap;html=1;" vertex="1" parent="1">
          <mxGeometry x="465" y="130" width="80" height="80" as="geometry" />
        </mxCell>
        <mxCell id="tWEEJkD8r4EJW1etzhwF-40" value="&lt;b&gt;&lt;u&gt;nif&lt;/u&gt;&lt;/b&gt;" style="ellipse;whiteSpace=wrap;html=1;rounded=0;" vertex="1" parent="1">
          <mxGeometry x="800" y="90" width="120" height="40" as="geometry" />
        </mxCell>
        <mxCell id="tWEEJkD8r4EJW1etzhwF-41" value="nombre" style="ellipse;whiteSpace=wrap;html=1;rounded=0;" vertex="1" parent="1">
          <mxGeometry x="850" y="170" width="120" height="40" as="geometry" />
        </mxCell>
        <mxCell id="tWEEJkD8r4EJW1etzhwF-42" value="direccion" style="ellipse;whiteSpace=wrap;html=1;rounded=0;" vertex="1" parent="1">
          <mxGeometry x="800" y="240" width="120" height="40" as="geometry" />
        </mxCell>
        <mxCell id="tWEEJkD8r4EJW1etzhwF-43" value="" style="endArrow=none;html=1;rounded=0;entryX=0;entryY=0.5;entryDx=0;entryDy=0;exitX=0.867;exitY=-0.017;exitDx=0;exitDy=0;exitPerimeter=0;" edge="1" parent="1" source="tWEEJkD8r4EJW1etzhwF-38" target="tWEEJkD8r4EJW1etzhwF-40">
          <mxGeometry width="50" height="50" relative="1" as="geometry">
            <mxPoint x="400" y="140" as="sourcePoint" />
            <mxPoint x="450" y="90" as="targetPoint" />
          </mxGeometry>
        </mxCell>
        <mxCell id="tWEEJkD8r4EJW1etzhwF-44" value="" style="endArrow=none;html=1;rounded=0;entryX=0;entryY=0.5;entryDx=0;entryDy=0;exitX=1;exitY=0.5;exitDx=0;exitDy=0;" edge="1" parent="1" source="tWEEJkD8r4EJW1etzhwF-38" target="tWEEJkD8r4EJW1etzhwF-41">
          <mxGeometry width="50" height="50" relative="1" as="geometry">
            <mxPoint x="764" y="149" as="sourcePoint" />
            <mxPoint x="810" y="120" as="targetPoint" />
          </mxGeometry>
        </mxCell>
        <mxCell id="tWEEJkD8r4EJW1etzhwF-45" value="" style="endArrow=none;html=1;rounded=0;" edge="1" parent="1" source="tWEEJkD8r4EJW1etzhwF-38" target="tWEEJkD8r4EJW1etzhwF-42">
          <mxGeometry width="50" height="50" relative="1" as="geometry">
            <mxPoint x="780" y="180" as="sourcePoint" />
            <mxPoint x="860" y="200" as="targetPoint" />
          </mxGeometry>
        </mxCell>
        <mxCell id="tWEEJkD8r4EJW1etzhwF-46" value="" style="endArrow=none;html=1;rounded=0;exitX=1;exitY=0.5;exitDx=0;exitDy=0;entryX=0;entryY=0.5;entryDx=0;entryDy=0;" edge="1" parent="1" source="tWEEJkD8r4EJW1etzhwF-2" target="tWEEJkD8r4EJW1etzhwF-39">
          <mxGeometry width="50" height="50" relative="1" as="geometry">
            <mxPoint x="400" y="140" as="sourcePoint" />
            <mxPoint x="450" y="90" as="targetPoint" />
          </mxGeometry>
        </mxCell>
        <mxCell id="tWEEJkD8r4EJW1etzhwF-47" value="" style="endArrow=none;html=1;rounded=0;entryX=0;entryY=0.5;entryDx=0;entryDy=0;exitX=0.9;exitY=0.563;exitDx=0;exitDy=0;exitPerimeter=0;" edge="1" parent="1" source="tWEEJkD8r4EJW1etzhwF-39" target="tWEEJkD8r4EJW1etzhwF-38">
          <mxGeometry width="50" height="50" relative="1" as="geometry">
            <mxPoint x="400" y="140" as="sourcePoint" />
            <mxPoint x="450" y="90" as="targetPoint" />
          </mxGeometry>
        </mxCell>
        <mxCell id="tWEEJkD8r4EJW1etzhwF-48" value="(1,1)" style="text;html=1;strokeColor=none;fillColor=none;align=center;verticalAlign=middle;whiteSpace=wrap;rounded=0;" vertex="1" parent="1">
          <mxGeometry x="560" y="130" width="60" height="30" as="geometry" />
        </mxCell>
        <mxCell id="tWEEJkD8r4EJW1etzhwF-49" value="(1,n)" style="text;html=1;strokeColor=none;fillColor=none;align=center;verticalAlign=middle;whiteSpace=wrap;rounded=0;" vertex="1" parent="1">
          <mxGeometry x="395" y="130" width="60" height="30" as="geometry" />
        </mxCell>
        <mxCell id="tWEEJkD8r4EJW1etzhwF-50" value="" style="rounded=0;whiteSpace=wrap;html=1;" vertex="1" parent="1">
          <mxGeometry x="235" y="1280" width="120" height="60" as="geometry" />
        </mxCell>
      </root>
    </mxGraphModel>
  </diagram>
</mxfile>
